<svg version="1" xmlns="http://www.w3.org/2000/svg" width="682.667" height="682.667" viewBox="0 0 512.000000 512.000000"><path d="M237.9.4c-.2.2-3.8.6-7.9 1-6.4.6-20.7 2.9-31.5 5.1-6.3 1.3-24.1 6.7-33.1 10.1C97.3 42.1 41.5 98.2 16.2 166.5c-6.6 17.8-11.9 38.3-13.6 53-.4 2.7-1 8.1-1.5 12-.9 6.9-.7 48.2.2 52 .3 1.1.8 4.5 1.2 7.5 1 8.2 1.4 10.8 3.1 18.5 13.5 61 47 113.5 96.4 150.9 34.6 26.2 77.8 43.9 119.5 49.1 2.8.4 7.7 1 11 1.5 6.6.8 47.5.6 51.5-.4 1.4-.3 4.8-.8 7.5-1.1 18.2-2.1 49.4-10.9 68-19.3 68.8-31.1 119.5-88.4 141.4-159.7 4.1-13.6 7.5-29 8.7-39.5.3-3 .9-8.4 1.4-12 .8-6.8.6-46.7-.4-51-.2-1.4-1-6.1-1.5-10.5-1.3-9.6-2.3-14.3-6.7-30.2-9.3-34-24.8-64.1-47.3-92C414.3 44.8 356.5 11.9 292 2.5c-1.9-.3-5.3-.7-7.5-1.1-4.4-.6-46-1.5-46.6-1zm45.6 30.1c3.9.5 10 1.6 12 2 .6.2 2.8.6 4.9.9 12.8 2.1 33.1 8.6 49.1 15.8 56.8 25.5 101.4 74.6 121.4 133.7 3.2 9.3 7.5 26.1 8.7 33.5.3 2.1.7 4.8 1 6 2 10.2 2.6 44.5 1.1 58.6-3.5 31.6-14.4 64-30.8 91.2-7.8 12.9-15.9 23.9-25.2 34.5-6.5 7.4-9.1 9.6-8.5 7.5.4-1.6-3.6-29.8-5.7-40.2-.3-1.4-.7-3.7-1-5.2-.3-1.4-2.1-8.2-4-14.9-7.1-24.5-12.7-31.7-32.5-41.5-12-5.9-33.3-12.3-31.5-9.4 1.7 2.8.3 29.4-2.1 38.1-.3 1 1.8 3 6.2 5.9 8.3 5.5 13.9 12.4 16 19.8 1.6 5.5 1.6 13.3-.1 33.2-.2 2.5-.6 8.5-1 13.5-1.7 26.5-6.9 41.6-15.8 45.8-2.1 1.1-5.6 1.5-10.5 1.4-6.5-.2-7.6-.5-9.4-2.6-1.3-1.7-1.7-3.3-1.3-5 .9-3.7 1.3-3.9 7.8-4.5 3.2-.4 6.7-1.1 7.8-1.7 4.7-2.4 7.8-15.1 9.4-37.9.3-3.6.8-9.7 1.2-13.5 1.1-10.3.8-21.5-.6-25.9-3.1-9.2-13.9-16.6-24.3-16.6-11.7 0-21.5 7.3-26.1 19.6-1.5 3.8-5.2 13.6-8.3 21.9-9.6 25.2-11.5 36.5-6.9 41 1.3 1.4 3.1 2.5 4 2.5 2.7 0 5.5 3.8 5.5 7.5 0 6.6-7.5 7.2-16.3 1.4-11.9-7.8-11.6-20.9 1.3-54.9 2.8-7.4 6.2-16.9 7.7-21 6.7-19.4 18.7-29.4 36-30.1l5.2-.3 1.2-6.5c2.8-14.9 1.6-37.1-2-37.1-1 0-5.7-1.4-10.6-3-4.9-1.7-9.6-3-10.6-3-1.1 0-2.2 1.8-3.4 5.7-4.7 14.9-16.6 41-25.8 56.6l-5.2 8.8-2.3-11.8c-3-15.1-3.2-22.7-.9-27.5l1.7-3.7-3.5-3.3c-11.5-10.4-10.6-9.9-13.6-8-1.4.9-4.9 3.8-7.8 6.3l-5.2 4.5 2 4.5c2.6 5.7 2.5 8.5-.8 25.4l-2.7 13.9-2.4-3.9c-11.4-18.4-27.4-53.9-28.8-63.9-.5-3.8-.5-3.8-4.3-3.2-2.1.3-6.4 1.6-9.5 2.7-5.1 1.9-5.8 2.6-8 7.3-6.5 14.3-9.9 46.2-7.3 70.1 1.5 14.3 1.9 16.9 3.3 23.5.8 3.6 2.7 10.1 4.3 14.5l2.9 7.9 4.7 1.1c16 3.5 20.6 23.6 7.4 32.3-5.5 3.7-15.4 3.8-20.9.4-6.6-4.1-10-15.9-6.3-22.2 3.1-5.5 3.4-3.1-3-27-3.7-13.7-5.7-29.2-6-47-.3-19.6 1.2-32.1 5.6-46.9 1.1-3.5 1.7-6.6 1.4-6.9-.9-.9-11.6 1.9-21.5 5.5-17.2 6.3-27.2 12.2-34.6 20.2-4.6 4.9-9.8 17.7-13.8 34.1-3 12.1-5.2 24.2-7.1 40-.9 7.7-1.5 11.4-2 11.8-.3.3-2.4-1.8-9.9-10.2-2.9-3.2-14.9-19.5-18.2-24.6-16.3-25.6-29.5-60.9-32.9-88.5-.4-2.8-.9-6.1-1.2-7.5-.9-4.4-1.1-42.2-.3-48.5.5-3.3 1.1-8.3 1.5-11 .3-2.8 1.7-10.2 3.1-16.5C51.2 131.9 104 71.2 175.5 43.7c5-1.9 10.4-3.8 12-4.2 1.7-.5 3.5-.9 4-1.1.6-.2 4.4-1.2 8.5-2.3 7.3-1.9 10-2.5 16.9-3.7 1.8-.3 4.3-.7 5.4-1 1.2-.2 5.3-.6 9.2-1 3.8-.3 7.2-.8 7.5-1.1.6-.5 39.4.4 44.5 1.2z"/><path d="M224 102.5c-21 4.7-36.6 20.4-41.4 41.4-3 12.9-1.3 36.9 4 57.4 6.3 25 16.5 43.9 31.6 59 8.5 8.5 17.8 13.8 27.7 15.7 11.9 2.2 27.7-1 39.9-8.2 7.1-4.2 20.6-17.5 25.7-25.2 14.5-22.3 18.6-40.2 18.1-78.6-.3-20-.5-21.4-5.2-31.8-4.5-9.7-15.9-20.6-26.9-25.7-9.9-4.5-17-5.8-28-5.1-11.5.8-10.2.8-26.5.2-8.9-.4-14.4-.1-19 .9z"/></svg>